<svg xmlns="http://www.w3.org/2000/svg" xmlns:xlink="http://www.w3.org/1999/xlink" version="1.1" width="858.898pt" height="612.283pt" viewBox="0 0 858.898 612.283">
<defs>
<clipPath id="clip_0">
<path transform="matrix(1,0,0,-1,0,612.283)" d="M0 612.283H858.898V0H0Z"/>
</clipPath>
</defs>
<g id="layer_1" data-name="">
<g clip-path="url(#clip_0)">
<path transform="matrix(1,0,0,-1,242.7958,324.9536)" d="M0 0C-3.404-.006-6.749-.578-9.883-1.937-12.808-3.206-15.407-4.973-17.612-7.277-19.886-9.653-21.618-12.426-22.897-15.449-24.294-18.748-25.091-22.23-25.389-25.796-25.717-29.707-25.502-33.697-24.401-37.478-23.439-40.781-21.883-43.799-19.603-46.384-17.333-48.959-14.539-50.849-11.377-52.169-7.766-53.677-3.866-54.255 .03-54.255 3.192-54.255 6.296-53.731 9.303-52.765 12.55-51.722 15.624-50.23 18.505-48.41L21.951-46.235 20.157-58.236 19.353-58.683C17.585-59.666 15.713-60.468 13.804-61.136 11.808-61.835 9.78-62.442 7.727-62.952 5.735-63.448 3.719-63.853 1.687-64.149-.083-64.407-1.891-64.587-3.681-64.587-8.873-64.587-14.024-63.869-18.954-62.213-23.519-60.679-27.69-58.353-31.237-55.078-34.766-51.818-37.324-47.843-39.019-43.352-40.924-38.305-41.345-32.874-40.897-27.529-40.444-22.108-39.09-16.845-36.521-12.03-34.162-7.611-31.089-3.7-27.255-.469-23.474 2.717-19.193 5.114-14.522 6.742-9.732 8.412-4.749 9.216 .324 9.216 4.546 9.216 8.766 8.778 12.918 8.025 17.318 7.227 21.641 6.061 25.849 4.554L27.492 3.965 27.015 2.286C26.678 1.096 26.396-.121 26.126-1.329 25.819-2.704 25.504-4.079 25.172-5.449L24.643-7.639 22.59-6.712C21.168-6.07 19.776-5.361 18.421-4.587 17.067-3.813 15.622-3.173 14.166-2.62 12.285-1.905 10.287-1.394 8.319-.983 5.607-.417 2.764-.153 0 0M254.086-99.391C253.963-97.584 253.67-95.888 254.388-94.153 255.267-92.03 257.242-90.538 259.901-89.546 262.247-88.671 265.173-88.17 268.325-87.954 275.626-87.45 287.087-88.348 293.93-91.18L293.963-94.206C280.324-94.533 267.268-95.658 254.086-99.391M-91.509-111.033H-66.14L-66.809-119.041H-92.179L-94.761-149.894H-109.286L-109.118-147.873C-109.087-147.488-109.031-147.1-108.971-146.718-108.869-146.063-108.816-145.373-108.761-144.713-108.637-143.226-108.513-141.739-108.388-140.251-108.173-137.68-107.958-135.109-107.743-132.538-107.403-128.481-107.063-124.423-106.724-120.364-106.229-114.448-105.734-108.531-105.239-102.615-104.617-95.18-101.908-88.579-96.247-83.616-90.228-78.34-82.41-76.555-74.577-76.555H-63.812L-64.576-85.679H-75.028C-76.841-85.679-78.638-85.922-80.394-86.366-82.12-86.802-83.679-87.578-85.081-88.675-86.613-89.873-87.801-91.419-88.73-93.118-89.877-95.218-90.392-97.679-90.59-100.045ZM-38.722-140.772C-37.116-140.824-35.51-140.662-33.967-140.199-32.593-139.787-31.411-139.069-30.392-138.059-29.186-136.863-28.351-135.282-27.756-133.707-26.891-131.419-26.49-128.832-26.287-126.405L-24.052-99.695H-9.618L-11.638-123.835C-12.236-130.978-14.518-137.73-19.668-142.888-24.834-148.062-31.588-149.987-38.777-149.987-42.512-149.987-46.447-149.548-49.93-148.13-52.857-146.939-55.437-145.174-57.396-142.674-59.343-140.192-60.515-137.294-61.114-134.212-61.796-130.711-61.842-127.07-61.545-123.524L-59.551-99.695H-45.118L-47.379-126.717C-47.577-129.085-47.666-131.677-47.3-134.034-47.08-135.452-46.66-137.023-45.813-138.205-45.142-139.143-44.279-139.791-43.196-140.187-41.82-140.689-40.297-140.818-38.842-140.772L-38.783-140.77ZM31.3-123.431C31.498-121.062 31.587-118.47 31.221-116.113 31.001-114.696 30.581-113.124 29.734-111.942 29.062-111.004 28.199-110.356 27.116-109.96 25.741-109.458 24.217-109.328 22.763-109.376L22.703-109.377 22.643-109.376C21.037-109.323 19.43-109.486 17.888-109.948 16.514-110.361 15.332-111.078 14.312-112.088 13.107-113.283 12.272-114.865 11.677-116.44 10.812-118.728 10.411-121.315 10.208-123.743L8.019-149.894H-6.414L-4.441-126.312C-3.843-119.169-1.561-112.418 3.59-107.259 8.755-102.086 15.508-100.16 22.697-100.16 26.433-100.16 30.367-100.598 33.851-102.017 36.778-103.208 39.358-104.973 41.318-107.473 43.264-109.956 44.435-112.853 45.035-115.935 45.716-119.436 45.763-123.077 45.467-126.624L43.519-149.894H29.085ZM80.18-110.213C78.374-110.447 76.623-110.931 74.947-111.644 73.251-112.365 71.762-113.403 70.471-114.718 69.038-116.178 68.061-118.017 67.385-119.933 66.487-122.477 66.323-125.394 66.426-128.069 66.504-130.089 67.339-132.003 68.418-133.683 69.818-135.862 71.783-137.539 74.002-138.844 76.768-140.47 80.007-141.246 83.174-141.57 87.426-142.006 91.918-141.07 95.942-139.748L98.446-138.927 98.302-145.755 97.175-146.221C95.896-146.751 94.619-147.288 93.347-147.837 91.938-148.444 90.477-148.938 89.003-149.358 87.177-149.878 85.284-150.224 83.405-150.481 80.884-150.826 78.3-150.959 75.758-151.009 72.403-151.075 69.024-150.553 65.925-149.234 63.068-148.017 60.534-146.285 58.433-143.992 56.307-141.672 54.823-138.941 53.899-135.938 52.904-132.703 52.647-129.304 52.928-125.94 53.272-121.823 54.41-117.904 56.443-114.305 58.399-110.842 60.983-107.901 64.209-105.577 75.546-97.409 92.989-97.879 100.347-111.109L101.19-112.625 99.74-113.577C97.523-115.033 95.347-116.413 93.269-118.075L91.502-119.488 90.45-117.484C89.81-116.266 89.14-115.055 88.413-113.886 87.913-113.083 87.305-112.353 86.558-111.769 85.837-111.206 84.998-110.845 84.117-110.62 82.868-110.301 81.47-110.217 80.18-110.213M124.774-99.51 120.558-149.894H106.124L110.34-99.51ZM109.762-85.329C109.964-82.92 110.994-80.858 112.751-79.201 114.518-77.536 116.651-76.649 119.081-76.649 121.487-76.649 123.584-77.521 125.212-79.299 126.84-81.075 127.529-83.244 127.329-85.641 127.228-86.85 126.865-87.995 126.268-89.052 125.689-90.076 124.948-90.984 124.066-91.762 123.198-92.53 122.225-93.156 121.159-93.613 120.13-94.054 119.039-94.322 117.915-94.322 115.514-94.322 113.42-93.45 111.815-91.654 110.222-89.871 109.563-87.706 109.762-85.329M159.421-99.881C163.158-99.881 167.06-100.396 170.466-102.013 173.308-103.362 175.813-105.221 177.764-107.703 179.65-110.103 180.933-112.834 181.671-115.793 182.427-118.818 182.707-121.948 182.574-125.061L182.571-125.135 182.562-125.208C182.164-128.447 181.376-131.616 180.158-134.645 178.96-137.62 177.254-140.304 175.01-142.596 172.695-144.96 169.914-146.72 166.866-147.986 163.3-149.466 159.38-149.987 155.54-149.987 151.677-149.987 147.622-149.507 144.043-147.978 141.071-146.709 138.417-144.894 136.365-142.376 134.418-139.986 133.092-137.253 132.344-134.261 131.581-131.205 131.312-128.044 131.45-124.899L131.452-124.843 131.458-124.788C131.791-121.593 132.573-118.49 133.809-115.527 135.057-112.534 136.822-109.861 139.094-107.549 141.503-105.096 144.412-103.285 147.578-101.975 151.311-100.43 155.403-99.881 159.421-99.881M225.616-123.431C225.815-121.062 225.904-118.47 225.538-116.113 225.318-114.696 224.898-113.124 224.051-111.942 223.379-111.004 222.516-110.356 221.433-109.96 220.058-109.458 218.534-109.328 217.08-109.376L217.02-109.377 216.959-109.376C215.354-109.323 213.747-109.486 212.205-109.948 210.831-110.361 209.649-111.078 208.629-112.088 207.423-113.283 206.589-114.865 205.994-116.44 205.129-118.728 204.727-121.315 204.524-123.743L202.336-149.894H187.902L189.876-126.312C190.474-119.169 192.756-112.418 197.907-107.259 203.072-102.086 209.825-100.16 217.014-100.16 220.75-100.16 224.684-100.598 228.168-102.017 231.095-103.208 233.675-104.973 235.635-107.473 237.581-109.956 238.752-112.853 239.352-115.935 240.033-119.436 240.08-123.077 239.783-126.624L237.836-149.894H223.402ZM282.3-144.914C281.282-145.99 280.156-146.99 278.91-147.788 277.643-148.599 276.266-149.191 274.799-149.523 273.386-149.843 271.942-149.987 270.495-149.987 266.847-149.987 262.984-149.593 259.554-148.285 256.667-147.184 254.106-145.518 252.111-143.141 250.143-140.796 248.874-138.05 248.155-135.085 247.351-131.766 247.167-128.292 247.334-124.889L247.338-124.825 247.345-124.762C247.754-121.294 248.533-117.846 249.86-114.608 251.075-111.642 252.786-108.959 255.064-106.696 257.374-104.402 260.138-102.746 263.185-101.623 266.729-100.316 270.617-99.881 274.375-99.881 278.188-99.881 282.215-100.288 285.81-101.625 288.781-102.73 291.472-104.389 293.566-106.795 295.598-109.13 296.91-111.878 297.636-114.876 298.441-118.196 298.625-121.67 298.458-125.073L298.453-125.135C298.433-125.384 298.412-125.631 298.391-125.88 298.314-126.809 298.236-127.738 298.158-128.668 297.971-130.898 297.784-133.128 297.598-135.359 297.245-139.571 296.893-143.785 296.54-147.998L296.374-149.987H281.848L282.042-147.668ZM337.111-99.788H339.155C339.923-99.788 340.691-99.819 341.456-99.889L343.3-100.058 342.572-108.76 340.569-108.421C339.887-108.305 339.196-108.24 338.504-108.213 337.756-108.185 337.007-108.168 336.257-108.168L336.197-108.167C334.412-108.11 332.645-108.34 330.921-108.802 329.175-109.27 327.578-110.056 326.131-111.141 324.584-112.301 323.394-113.824 322.47-115.514 321.312-117.633 320.802-120.148 320.603-122.534L318.305-149.987H303.872L305.884-125.94C306.513-118.42 309.282-111.778 315.035-106.795 321.172-101.481 329.183-99.788 337.111-99.788M364.162-99.51 359.946-149.894H345.513L349.728-99.51ZM349.15-85.329C349.351-82.92 350.382-80.858 352.139-79.201 353.906-77.536 356.039-76.649 358.47-76.649 360.875-76.649 362.972-77.521 364.6-79.299 366.229-81.075 366.918-83.244 366.717-85.641 366.616-86.85 366.253-87.995 365.656-89.052 365.077-90.076 364.336-90.984 363.454-91.762 362.586-92.53 361.614-93.156 360.548-93.613 359.518-94.054 358.428-94.322 357.303-94.322 354.902-94.322 352.808-93.45 351.203-91.654 349.61-89.871 348.951-87.706 349.15-85.329M398.809-99.881C402.547-99.881 406.448-100.396 409.854-102.013 412.696-103.362 415.202-105.221 417.153-107.703 419.038-110.103 420.321-112.834 421.06-115.793 421.815-118.818 422.096-121.948 421.962-125.061L421.96-125.135 421.95-125.208C421.552-128.447 420.764-131.616 419.546-134.645 418.349-137.62 416.642-140.304 414.398-142.596 412.083-144.96 409.303-146.72 406.255-147.986 402.688-149.466 398.768-149.987 394.929-149.987 391.065-149.987 387.011-149.507 383.431-147.978 380.459-146.709 377.805-144.894 375.754-142.376 373.806-139.986 372.479-137.253 371.732-134.261 370.969-131.205 370.7-128.044 370.838-124.899L370.84-124.843 370.846-124.788C371.179-121.593 371.962-118.49 373.198-115.527 374.445-112.534 376.21-109.861 378.482-107.549 380.89-105.096 383.8-103.285 386.966-101.975 390.699-100.43 394.791-99.881 398.809-99.881M449.418-107.518C448.404-107.525 447.399-107.65 446.414-107.885 445.502-108.102 444.607-108.423 443.793-108.893 443.111-109.288 442.508-109.783 442.014-110.398 441.607-110.905 441.408-111.479 441.354-112.126 441.304-112.722 441.372-113.327 441.702-113.837 442.145-114.522 442.763-115.096 443.418-115.573 444.306-116.221 445.287-116.745 446.295-117.179 447.558-117.721 448.817-118.27 450.085-118.795 451.797-119.503 453.499-120.231 455.178-121.01 456.923-121.819 458.567-122.826 460.047-124.057 461.549-125.307 462.74-126.82 463.596-128.577 464.583-130.599 464.803-132.861 464.617-135.08 464.4-137.672 463.631-140.123 462.137-142.265 460.762-144.236 459.039-145.861 456.988-147.112 454.941-148.361 452.718-149.242 450.387-149.797 448.122-150.336 445.806-150.638 443.477-150.638L443.427-150.637C440.972-150.572 438.521-150.377 436.084-150.065 433.494-149.733 430.937-149.172 428.436-148.421L427.172-148.042 426.608-136.448 429.782-138.818C431.505-140.105 433.446-141.17 435.556-141.655 437.879-142.188 440.4-142.265 442.773-142.166L442.851-142.164C444.07-142.164 445.282-142.024 446.463-141.715 447.52-141.437 448.537-141.027 449.467-140.448 450.241-139.966 450.917-139.366 451.433-138.611 451.916-137.904 452.151-137.105 452.223-136.256 452.275-135.628 452.194-135.01 451.858-134.468 451.438-133.791 450.864-133.233 450.219-132.77 449.362-132.154 448.413-131.662 447.439-131.259 446.208-130.75 444.966-130.263 443.749-129.806 441.97-129.175 440.215-128.475 438.49-127.709 436.729-126.926 435.074-125.93 433.591-124.697 432.06-123.423 430.875-121.859 430.035-120.053 429.056-117.949 428.86-115.589 429.052-113.301 429.237-111.089 429.946-109.035 431.2-107.2 432.428-105.403 433.996-103.921 435.819-102.738 437.722-101.503 439.809-100.621 441.997-100.037 444.272-99.43 446.607-99.138 448.96-99.138 450.56-99.138 452.169-99.185 453.762-99.331 455.134-99.457 456.502-99.68 457.833-100.038 459.086-100.375 460.301-100.84 461.451-101.44 462.617-102.048 463.753-102.721 464.864-103.423L465.667-103.93 465.729-104.877C465.807-106.049 465.823-107.257 465.685-108.425 465.58-109.317 465.49-110.21 465.415-111.104L465.122-114.594 462.388-112.406C461.692-111.848 460.977-111.315 460.249-110.8 459.469-110.25 458.612-109.79 457.747-109.39 456.658-108.887 455.474-108.531 454.307-108.259 452.712-107.886 451.049-107.67 449.418-107.518M145.729-126.716C145.535-129.04 145.482-131.637 145.975-133.928 146.289-135.394 146.833-136.929 147.811-138.09 148.642-139.079 149.666-139.759 150.891-140.171 152.363-140.666 153.928-140.821 155.475-140.772L155.534-140.77 155.595-140.772C157.201-140.824 158.807-140.662 160.35-140.199 161.723-139.787 162.906-139.069 163.924-138.059 165.131-136.863 165.966-135.282 166.561-133.707 167.425-131.419 167.827-128.832 168.03-126.405L168.302-123.152C168.499-120.804 168.547-118.203 168.059-115.886 167.75-114.414 167.21-112.852 166.229-111.685 165.406-110.708 164.395-110.046 163.177-109.661 161.69-109.191 160.112-109.047 158.558-109.097L158.497-109.099 158.437-109.097C156.835-109.045 155.238-109.22 153.708-109.707 152.325-110.147 151.129-110.881 150.099-111.902 148.899-113.092 148.062-114.648 147.464-116.214 146.599-118.477 146.203-121.059 146.002-123.463ZM271.478-140.772C274.962-140.882 277.648-139.337 279.795-136.642 282.704-132.991 283.795-127.889 284.171-123.34L284.186-123.154C284.378-120.831 284.434-118.23 283.94-115.94 283.626-114.475 283.083-112.939 282.105-111.778 281.273-110.79 280.251-110.109 279.025-109.698 277.553-109.203 275.988-109.047 274.442-109.097L274.381-109.099 274.321-109.097C272.715-109.045 271.108-109.207 269.566-109.669 268.192-110.082 267.009-110.799 265.991-111.809 264.785-113.005 263.95-114.587 263.355-116.162 262.49-118.449 262.089-121.036 261.885-123.463L261.614-126.716C261.417-129.064 261.369-131.665 261.857-133.982 262.166-135.453 262.706-137.017 263.686-138.183 264.509-139.161 265.52-139.822 266.738-140.207 268.226-140.677 269.804-140.822 271.358-140.772L271.419-140.77ZM385.118-126.716C384.924-129.04 384.871-131.637 385.363-133.928 385.678-135.394 386.221-136.929 387.199-138.09 388.03-139.079 389.054-139.759 390.279-140.171 391.751-140.666 393.316-140.821 394.863-140.772L394.923-140.77 394.983-140.772C396.589-140.824 398.195-140.662 399.738-140.199 401.112-139.787 402.294-139.069 403.313-138.059 404.519-136.863 405.354-135.282 405.949-133.707 406.813-131.419 407.215-128.832 407.418-126.405L407.691-123.152C407.887-120.804 407.935-118.203 407.448-115.886 407.138-114.414 406.598-112.852 405.617-111.685 404.794-110.708 403.784-110.046 402.565-109.661 401.078-109.191 399.5-109.047 397.946-109.097L397.885-109.099 397.825-109.097C396.223-109.045 394.627-109.22 393.096-109.707 391.713-110.147 390.518-110.881 389.487-111.902 388.287-113.092 387.451-114.648 386.852-116.214 385.987-118.477 385.591-121.059 385.39-123.463ZM283.026-16.161 285.306 8.938H299.728L299.558 6.915C299.257 3.322 298.956-.272 298.656-3.865 298.36-7.396 298.065-10.928 297.769-14.459 297.499-17.681 297.23-20.902 296.96-24.124 296.74-26.757 296.52-29.39 296.299-32.023 296.146-33.851 295.993-35.678 295.841-37.506 295.782-38.218 295.721-38.93 295.662-39.642L295.655-39.706C295.246-43.174 294.467-46.623 293.14-49.86 291.913-52.857 290.157-55.542 287.823-57.791 285.413-60.115 282.517-61.753 279.368-62.856 275.658-64.155 271.609-64.587 267.695-64.587 264.037-64.587 260.168-64.178 256.741-62.831 253.868-61.702 251.314-60.023 249.32-57.648 247.352-55.303 246.083-52.557 245.364-49.592 244.56-46.273 244.376-42.798 244.543-39.395L244.546-39.332 244.554-39.268C244.966-35.771 245.754-32.304 247.072-29.032 248.287-26.015 249.998-23.272 252.278-20.943 254.58-18.592 257.341-16.867 260.401-15.677 263.946-14.297 267.846-13.83 271.63-13.83 274.266-13.83 276.969-14.103 279.493-14.891 280.687-15.264 281.868-15.685 283.026-16.161M331.145-14.481C334.882-14.481 338.784-14.996 342.19-16.613 345.032-17.962 347.537-19.821 349.488-22.303 351.374-24.702 352.657-27.434 353.395-30.393 354.15-33.418 354.431-36.548 354.298-39.66L354.295-39.735 354.286-39.808C353.888-43.047 353.1-46.216 351.881-49.245 350.684-52.22 348.978-54.904 346.734-57.196 344.418-59.56 341.638-61.32 338.59-62.585 335.024-64.066 331.104-64.587 327.264-64.587 323.4-64.587 319.346-64.107 315.767-62.578 312.795-61.308 310.141-59.494 308.089-56.976 306.142-54.586 304.815-51.852 304.068-48.861 303.305-45.805 303.036-42.644 303.173-39.499L303.176-39.443 303.181-39.387C303.514-36.193 304.297-33.09 305.533-30.127 306.781-27.134 308.546-24.461 310.817-22.149 313.226-19.696 316.136-17.885 319.302-16.575 323.035-15.03 327.127-14.481 331.145-14.481M381.753-22.118C380.74-22.125 379.735-22.249 378.75-22.485 377.837-22.702 376.944-23.023 376.129-23.493 375.447-23.888 374.844-24.383 374.35-24.998 373.942-25.505 373.743-26.079 373.69-26.726 373.64-27.322 373.708-27.926 374.038-28.437 374.48-29.122 375.099-29.696 375.754-30.173 376.642-30.821 377.623-31.345 378.631-31.778 379.893-32.321 381.152-32.87 382.421-33.395 384.132-34.103 385.834-34.831 387.514-35.61 389.259-36.419 390.903-37.426 392.382-38.657 393.885-39.906 395.076-41.42 395.932-43.177 396.919-45.199 397.138-47.461 396.953-49.68 396.736-52.271 395.967-54.723 394.472-56.865 393.098-58.836 391.375-60.461 389.324-61.712 387.277-62.961 385.054-63.842 382.723-64.397 380.458-64.936 378.142-65.238 375.812-65.238L375.763-65.237C373.308-65.172 370.857-64.977 368.42-64.665 365.83-64.333 363.273-63.772 360.772-63.021L359.508-62.642 358.943-51.048 362.117-53.418C363.841-54.705 365.782-55.77 367.891-56.255 370.214-56.788 372.736-56.865 375.109-56.766L375.186-56.764C376.406-56.764 377.618-56.624 378.798-56.314 379.856-56.037 380.873-55.627 381.802-55.048 382.576-54.566 383.252-53.966 383.768-53.211 384.252-52.503 384.487-51.704 384.558-50.855 384.61-50.228 384.53-49.61 384.194-49.068 383.773-48.39 383.2-47.833 382.555-47.37 381.698-46.754 380.749-46.262 379.775-45.859 378.543-45.349 377.302-44.863 376.085-44.406 374.306-43.774 372.551-43.075 370.826-42.308 369.064-41.526 367.409-40.53 365.926-39.296 364.395-38.023 363.211-36.459 362.37-34.653 361.392-32.549 361.196-30.189 361.387-27.901 361.573-25.689 362.281-23.635 363.536-21.8 364.763-20.003 366.332-18.521 368.155-17.338 370.058-16.103 372.144-15.221 374.333-14.637 376.608-14.03 378.942-13.737 381.296-13.737 382.895-13.737 384.504-13.785 386.098-13.931 387.469-14.057 388.837-14.28 390.168-14.638 391.421-14.975 392.636-15.44 393.787-16.04 394.952-16.648 396.088-17.32 397.199-18.023L398.002-18.529 398.065-19.477C398.143-20.649 398.158-21.857 398.021-23.025 397.915-23.917 397.826-24.81 397.751-25.704L397.458-29.194 394.724-27.006C394.028-26.448 393.313-25.915 392.584-25.4 391.804-24.85 390.948-24.39 390.083-23.99 388.993-23.487 387.81-23.131 386.643-22.859 385.047-22.486 383.384-22.27 381.753-22.118M281.387-37.752C281.585-35.379 281.629-32.774 281.146-30.432 280.825-28.876 280.272-27.264 279.287-25.996 278.47-24.944 277.456-24.187 276.209-23.717 274.769-23.174 273.229-22.997 271.696-23.046L271.636-23.048 271.575-23.046C269.978-22.994 268.391-23.182 266.872-23.693 265.469-24.165 264.278-24.964 263.262-26.039 262.037-27.337 261.182-28.993 260.568-30.656 259.705-32.991 259.293-35.591 259.086-38.063L258.814-41.316C258.618-43.664 258.569-46.265 259.057-48.582 259.367-50.053 259.906-51.617 260.887-52.783 261.71-53.761 262.721-54.422 263.939-54.807 265.427-55.277 267.005-55.422 268.559-55.372L268.619-55.37 268.679-55.372C270.281-55.423 271.877-55.248 273.408-54.761 274.791-54.322 275.986-53.588 277.018-52.566 278.217-51.376 279.054-49.82 279.652-48.254 280.517-45.991 280.914-43.409 281.115-41.005ZM317.453-41.316C317.259-43.64 317.207-46.237 317.699-48.528 318.013-49.993 318.557-51.529 319.534-52.69 320.366-53.679 321.389-54.359 322.615-54.771 324.086-55.266 325.652-55.421 327.198-55.372L327.258-55.37 327.318-55.372C328.925-55.423 330.531-55.262 332.073-54.799 333.447-54.387 334.629-53.669 335.648-52.659 336.855-51.463 337.689-49.882 338.285-48.306 339.149-46.019 339.551-43.432 339.754-41.005L340.026-37.752C340.222-35.404 340.271-32.803 339.783-30.486 339.473-29.014 338.934-27.452 337.952-26.285 337.13-25.308 336.119-24.646 334.901-24.261 333.413-23.791 331.836-23.647 330.281-23.697L330.221-23.699 330.16-23.697C328.559-23.645 326.962-23.819 325.432-24.307 324.049-24.746 322.853-25.48 321.823-26.502 320.622-27.692 319.786-29.248 319.188-30.814 318.323-33.077 317.927-35.659 317.725-38.063ZM29.603-37.938 33.525 8.938H47.959L43.769-41.131C43.587-43.305 43.634-45.745 44.385-47.819 44.954-49.387 45.772-50.873 46.967-52.052 48.038-53.108 49.278-53.878 50.706-54.35 52.169-54.833 53.681-55.129 55.223-55.186L57.177-55.258 56.409-64.442 54.652-64.401C47.483-64.233 40.322-62.416 35.268-57.027 30.35-51.783 29.017-44.938 29.603-37.938M86.051-55.372C87.657-55.423 89.263-55.262 90.806-54.799 92.18-54.387 93.362-53.669 94.381-52.659 95.588-51.463 96.422-49.882 97.018-48.306 97.882-46.019 98.283-43.432 98.486-41.004L100.721-14.295H115.155L113.135-38.435C112.537-45.578 110.255-52.33 105.105-57.488 99.939-62.661 93.186-64.587 85.997-64.587 82.261-64.587 78.326-64.148 74.843-62.73 71.916-61.539 69.337-59.774 67.377-57.274 65.43-54.792 64.259-51.894 63.659-48.812 62.977-45.311 62.931-41.67 63.228-38.124L65.222-14.295H79.655L77.394-41.316C77.196-43.685 77.107-46.277 77.473-48.634 77.693-50.052 78.113-51.623 78.96-52.805 79.631-53.742 80.494-54.391 81.578-54.786 82.953-55.289 84.476-55.418 85.931-55.372L85.99-55.37ZM137.104-16.048C138.244-15.616 139.401-15.23 140.569-14.883 143.154-14.116 145.881-13.83 148.57-13.83 152.25-13.83 156.13-14.269 159.552-15.693 162.432-16.891 164.969-18.642 166.943-21.072 168.9-23.484 170.157-26.29 170.866-29.302 171.655-32.655 171.846-36.146 171.677-39.579L171.674-39.643 171.666-39.706C171.257-43.174 170.477-46.623 169.151-49.86 167.936-52.826 166.225-55.509 163.947-57.772 161.637-60.066 158.872-61.722 155.826-62.845 152.282-64.152 148.394-64.587 144.636-64.587 140.823-64.587 136.796-64.181 133.202-62.843 130.23-61.738 127.539-60.079 125.445-57.673 123.415-55.339 122.101-52.59 121.375-49.592 120.57-46.273 120.386-42.798 120.553-39.396L120.558-39.332C120.617-38.62 120.677-37.908 120.736-37.195 120.889-35.367 121.042-33.539 121.195-31.711 121.415-29.078 121.636-26.445 121.856-23.812 122.126-20.59 122.395-17.369 122.665-14.147 122.96-10.616 123.256-7.085 123.551-3.553 123.852 .04 124.152 3.633 124.453 7.227L124.597 8.938H139.016ZM192.838-44.328C192.941-45.32 193.1-46.307 193.305-47.283 193.626-48.82 194.224-50.24 195.114-51.533 196.032-52.87 197.272-53.891 198.681-54.678 200.438-55.659 202.634-55.928 204.616-55.928 207.46-55.928 210.827-55.133 213.565-54.41L215.562-53.883 216.599-60.417 215.273-60.993C213.244-61.876 211.188-62.696 209.109-63.453 206.861-64.27 204.502-64.624 202.114-64.494 198.823-64.489 195.572-63.952 192.526-62.677 189.688-61.489 187.169-59.786 185.071-57.534 182.954-55.263 181.422-52.601 180.399-49.675 179.288-46.497 178.911-43.126 179.068-39.772L179.072-39.703C179.348-36.414 180.203-33.259 181.662-30.299 183.095-27.39 184.996-24.799 187.347-22.568 189.712-20.323 192.422-18.548 195.408-17.24 198.51-15.882 201.796-15.169 205.178-15.04L205.231-15.038 205.284-15.039C208.682-15.101 212.038-15.709 215.149-17.108 217.983-18.382 220.49-20.164 222.535-22.509 224.554-24.827 225.984-27.504 226.863-30.45 227.779-33.522 227.989-36.688 227.598-39.867 227.558-40.335 227.495-40.807 227.432-41.272 227.371-41.718 227.313-42.167 227.275-42.615L227.133-44.328ZM135.097-38.063 134.825-41.316C134.631-43.64 134.578-46.237 135.07-48.528 135.385-49.993 135.928-51.529 136.906-52.69 137.738-53.679 138.761-54.359 139.985-54.771 141.458-55.266 143.023-55.421 144.57-55.372L144.63-55.37 144.69-55.372C146.296-55.423 147.902-55.262 149.445-54.799 150.818-54.387 152.001-53.669 153.02-52.659 154.226-51.463 155.061-49.882 155.657-48.306 156.521-46.019 156.922-43.432 157.125-41.005L157.397-37.752C157.597-35.356 157.638-32.746 157.159-30.378 156.843-28.815 156.295-27.177 155.306-25.903 154.498-24.863 153.495-24.124 152.255-23.682 150.799-23.163 149.246-22.997 147.707-23.046L147.647-23.048 147.586-23.046C145.991-22.994 144.415-23.195 142.907-23.729 141.496-24.23 140.293-25.044 139.264-26.132 138.045-27.424 137.19-29.055 136.572-30.708 135.709-33.02 135.302-35.613 135.097-38.063M193.76-34.833H213.824C213.628-32.039 213.01-28.864 211.283-26.86 209.539-24.839 207.256-24.069 204.62-24.069H204.435C203-24.069 201.628-24.363 200.377-25.078 199.108-25.802 198.017-26.742 197.102-27.88 196.098-29.128 195.316-30.528 194.716-32.01 194.342-32.933 194.023-33.875 193.76-34.833" fill="#6a191d" fill-rule="evenodd"/>
<path transform="matrix(1,0,0,-1,521.4708,172.78513)" d="M0 0C-.127 3.634-.254 7.268-.381 10.903 9.08 12.451 10.858 12.149 17.972 18.668 17.606 20.729 17.24 22.792 16.874 24.854 8.082 28.673 6.274 27.585-3.07 25.907-4.161 29.423-5.253 32.938-6.342 36.454 2.199 40.362 4.364 40.573 9.441 48.586 8.549 50.523 7.656 52.461 6.762 54.398-2.662 55.756-4.147 54.249-12.725 50.325-14.698 53.413-16.668 56.504-18.641 59.594-11.332 65.669-9.397 66.277-6.614 75.451-7.949 77.045-9.284 78.638-10.62 80.232-20.124 79.12-21.171 77.341-28.464 71.278-31.144 73.765-33.824 76.25-36.504 78.737-31 86.471-29.45 87.606-28.908 97.149-30.642 98.397-32.376 99.646-34.11 100.894-42.971 97.322-43.501 95.279-48.992 87.569-52.209 89.231-55.426 90.892-58.642 92.555-55.373 101.511-54.123 102.992-56.278 112.349-58.238 113.075-60.198 113.802-62.157 114.528-69.895 108.832-69.879 106.82-73.144 97.868-76.679 98.658-80.214 99.45-83.749 100.242-82.866 109.739-82.076 111.449-86.506 119.972-88.605 120.174-90.702 120.377-92.8 120.581-98.685 113.013-98.213 111.097-99.091 101.627-102.727 101.499-106.36 101.373-109.995 101.246-111.543 110.707-111.239 112.483-117.76 119.599-119.821 119.233-121.884 118.866-123.944 118.5-127.745 109.752-126.654 107.875-125.129 98.558-128.601 97.467-132.072 96.375-135.545 95.283-139.54 104.016-139.677 105.834-147.808 111.07-149.702 110.176-151.596 109.282-153.49 108.388-154.845 98.961-153.342 97.484-149.416 88.902-152.505 86.93-155.595 84.958-158.684 82.986-164.761 90.295-165.368 92.23-174.543 95.013-176.18 93.678-177.818 92.343-179.455 91.008-178.138 81.523-176.442 80.468-170.369 73.162-172.856 70.482-175.342 67.802-177.829 65.121-185.551 70.622-186.691 72.253-196.242 72.588-197.49 70.898-198.738 69.207-199.985 67.516-196.392 58.605-194.491 58.057-186.659 52.634-188.366 49.418-190.071 46.203-191.777 42.987-200.721 46.151-202.23 47.451-211.572 45.35-212.254 43.39-212.937 41.429-213.62 39.468-207.922 31.729-205.912 31.75-196.959 28.482-197.794 24.948-198.628 21.414-199.464 17.88-208.839 18.762-210.753 19.639-219.192 15.253-219.396 13.154-219.598 11.057-219.801 8.958-212.234 3.075-210.317 3.547-200.847 2.667-200.803 2.667-200.76 2.666-200.716 2.666-200.589-1.012-200.463-4.69-200.337-8.368-209.817-9.919-211.652-9.481-218.69-16.133-218.324-18.195-217.956-20.257-217.591-22.319-208.799-26.138-206.992-25.051-197.647-23.372-196.556-26.887-195.465-30.403-194.374-33.919-202.922-37.83-205.077-38.038-210.16-46.051-209.266-47.988-208.373-49.926-207.48-51.863-198.056-53.221-196.571-51.714-187.994-47.79-186.022-50.879-184.05-53.969-182.077-57.059-189.384-63.133-191.323-63.745-194.104-72.917-192.769-74.511-191.434-76.104-190.098-77.697-180.592-76.584-179.548-74.807-172.254-68.743-169.573-71.229-166.893-73.716-164.213-76.202-169.717-83.932-171.267-85.074-171.811-94.614-170.075-95.819-168.34-97.024-166.606-98.228-157.712-94.848-157.191-92.708-151.726-85.034-148.509-86.696-145.292-88.358-142.076-90.02-145.345-98.974-146.594-100.459-144.44-109.815-142.48-110.541-140.52-111.267-138.56-111.994-130.821-106.299-130.841-104.284-127.573-95.334-124.038-96.124-120.504-96.916-116.97-97.706-117.851-107.208-118.641-108.911-114.212-117.437-112.114-117.64-110.015-117.843-107.917-118.046-102.009-110.447-102.49-108.616-101.757-99.09-98.08-98.964-94.401-98.837-90.724-98.711-89.171-108.19-89.609-110.026-82.958-117.064-80.896-116.698-78.834-116.331-76.773-115.965-72.954-107.174-74.04-105.367-75.719-96.021-72.204-94.93-68.688-93.839-65.173-92.748-61.22-101.387-61.024-103.265-53.041-108.534-51.103-107.64-49.166-106.747-47.228-105.854-45.871-96.432-47.378-94.944-51.302-86.367-48.212-84.395-45.123-82.423-42.033-80.451-35.956-87.76-35.349-89.695-26.175-92.478-24.537-91.143-22.901-89.808-21.263-88.474-22.576-78.99-24.277-77.931-30.349-70.627-27.863-67.947-25.375-65.267-22.89-62.586-15.166-68.087-14.027-69.718-4.475-70.052-3.228-68.362-1.98-66.672-.732-64.981-4.325-56.069-6.226-55.524-14.058-50.099-12.353-46.884-10.646-43.667-8.941-40.452-.111-43.577 1.507-44.935 10.723-42.813 11.45-40.853 12.174-38.894 12.901-36.934 7.203-29.193 5.196-29.215-3.758-25.947-2.924-22.413-2.09-18.879-1.255-15.345 8.077-16.223 9.995-17.036 18.345-12.585 18.549-10.486 18.752-8.389 18.954-6.291 11.468-.264 9.481-.879 0 0M-93.757 14.229-93.759 18.259-107.131 18.266-107.135 14.23C-112.467 11.686-116.151 6.246-116.151-.056-116.151-8.792-109.068-15.876-100.331-15.876-91.594-15.876-84.511-8.792-84.511-.056-84.511 6.427-87.816 11.508-93.757 14.229M-100.331 23.204C-88.019 23.204-78.038 13.223-78.038 .911-78.038-11.4-88.019-21.382-100.331-21.382-112.643-21.382-122.624-11.4-122.624 .911-122.624 13.223-112.643 23.204-100.331 23.204M-100.331 25.091C-86.976 25.091-76.151 14.265-76.151 .911-76.151-12.443-86.976-23.27-100.331-23.27-113.685-23.27-124.511-12.443-124.511 .911-124.511 14.265-113.685 25.091-100.331 25.091M-100.424 89.427C-51.734 89.427-12.264 49.956-12.264 1.268-12.264-47.422-51.734-86.893-100.424-86.893-149.113-86.893-188.584-47.422-188.584 1.268-188.584 49.956-149.113 89.427-100.424 89.427M-178.957-13.259C-177.465-21.877-173.825-31.84-169.339-39.356-166.802-43.605-160.824-51.988-155.383-51.992-143.249-52.005-129.383-22.549-131.512-12.607-132.762-6.768-136.283-2.16-141.199 1.101-146.877 4.866-168.64 14.196-175.469 9.713-182.124 5.344-179.853-6.403-178.957-13.259M-167.939 38.888C-167.911 28.387-148.777 25.96-140.749 23.969-126.383 21.92-115.065 27.247-112.014 42.563-110.367 50.826-107.848 75.437-119.687 76.803-125.608 77.488-134.379 73.313-139.381 70.424-147.186 65.915-155.711 59.428-161.257 52.399-162.266 51.12-163.167 50.023-164.099 48.591-165.536 46.382-167.857 42.207-167.939 38.888M-80.148 27.669C-78.64 26.531-77.267 25.755-75.36 25.069-74.492 24.756-73.611 24.458-72.52 24.216-64.372 22.402-55.854 24.583-48.09 27.163-44.743 28.275-37.225 31.045-35.241 33.035-31.321 36.973-32.587 42.454-35.333 46.622-38.689 51.712-43.934 57.715-48.7 61.579-57.757 68.361-68.927 76.86-80.761 76.577-95.884 76.216-91.248 36.041-80.148 27.669M-69.17-13.329C-69.178-19.953-68.711-22.315-65.392-29.005-62.102-35.636-58.908-38.767-55.024-43.762-53.267-46.022-49.92-49.74-47.043-50.556-41.406-52.155-37.488-47.831-34.697-44.112-29.076-36.618-24.575-25.894-22.485-16.426-21.108-10.194-19.128 2.945-23.262 8.938-25.648 12.397-28.737 13.372-32.931 12.74-38.599 11.884-46.6 8.779-51.858 6.545-56.299 4.658-60.858 1.379-64.061-1.938-66.159-4.109-69.164-9.213-69.17-13.329M-77.835-75.605C-58.354-68.232-66.277-59.355-75.583-47.323-76.978-45.521-78.735-43.807-80.327-42.215-82.665-39.874-84.772-38.059-87.697-36.286-95.31-31.675-102.751-31.466-110.355-36.19-111.991-37.208-116.182-40.512-117.341-42.011-119.332-44.586-120.387-45.445-123.074-49.087-123.975-50.309-124.851-51.553-125.653-52.91L-128.052-56.917C-128.811-58.175-129.628-59.615-130.336-61.034-132.966-66.304-131.882-70.693-126.706-73.817-116.469-79.994-89.832-80.145-77.835-75.605M-100.424 92.512C-50.031 92.512-9.178 51.661-9.178 1.268-9.178-49.126-50.031-89.978-100.424-89.978-150.816-89.978-191.669-49.126-191.669 1.268-191.669 51.661-150.816 92.512-100.424 92.512" fill="#6a191d" fill-rule="evenodd"/>
<path transform="matrix(1,0,0,-1,428.6156,217.18622)" d="M0 0V-8.378H-.703C-.931-6.769-1.34-5.488-1.931-4.537-2.522-3.586-3.368-2.83-4.466-2.269-5.557-1.708-6.689-1.428-7.858-1.428-9.184-1.428-10.275-1.805-11.14-2.562-12.003-3.317-12.44-4.183-12.44-5.146-12.44-5.884-12.167-6.561-11.62-7.171-10.827-8.061-8.955-9.257-5.994-10.743-3.575-11.963-1.925-12.897-1.04-13.542-.157-14.195 .527-14.957 1.001-15.842 1.474-16.725 1.714-17.646 1.714-18.616 1.714-20.451 .955-22.03-.56-23.359-2.079-24.688-4.038-25.354-6.422-25.354-7.175-25.354-7.877-25.298-8.54-25.189-8.936-25.128-9.749-24.907-10.991-24.531-12.225-24.152-13.012-23.964-13.344-23.964-13.661-23.964-13.915-24.054-14.096-24.231-14.279-24.415-14.416-24.786-14.506-25.354H-15.209V-17.049H-14.506C-14.176-18.786-13.733-20.091-13.175-20.95-12.614-21.816-11.757-22.537-10.608-23.104-9.457-23.677-8.196-23.964-6.824-23.964-5.239-23.964-3.979-23.566-3.062-22.781-2.138-21.988-1.679-21.055-1.679-19.981-1.679-19.384-1.853-18.781-2.197-18.17-2.549-17.561-3.088-16.993-3.821-16.463-4.316-16.104-5.675-15.348-7.891-14.189-10.106-13.036-11.687-12.11-12.621-11.421-13.557-10.732-14.272-9.963-14.753-9.135-15.24-8.299-15.482-7.378-15.482-6.378-15.482-4.64-14.766-3.141-13.344-1.884-11.919-.629-10.101 0-7.904 0-6.525 0-5.07-.317-3.53-.945-2.816-1.244-2.314-1.39-2.023-1.39-1.69-1.39-1.418-1.3-1.209-1.116-1.001-.928-.833-.561-.703 0Z" fill="#6a191d"/>
<path transform="matrix(1,0,0,-1,454.1726,114.57541)" d="M0 0V-9.512H3.862C4.757-9.512 5.416-9.292 5.83-8.853 6.249-8.408 6.522-7.525 6.662-6.182H7.241V-14.414H6.662C6.65-13.476 6.544-12.78 6.34-12.342 6.13-11.895 5.846-11.567 5.482-11.347 5.117-11.121 4.581-11.012 3.862-11.012H0V-18.658C0-19.884 .071-20.694 .205-21.084 .306-21.383 .527-21.64 .858-21.853 1.314-22.14 1.791-22.279 2.295-22.279H3.056V-22.939H-6.082V-22.279H-5.325C-4.44-22.279-3.802-21.987-3.4-21.407-3.148-21.024-3.025-20.109-3.025-18.658V-2.962C-3.025-1.737-3.095-.927-3.229-.537-3.336-.238-3.55 .019-3.878 .233-4.329 .519-4.811 .659-5.325 .659H-6.082V1.317H9.751L9.977-4.024H9.429C9.155-2.884 8.839-2.049 8.479-1.519 8.114-.988 7.67-.597 7.143-.36 6.613-.122 5.798 0 4.688 0Z" fill="#6a191d"/>
<path transform="matrix(1,0,0,-1,465.8034,179.97663)" d="M0 0H5.734L18.804-18.213V-4.207C18.804-2.714 18.654-1.78 18.359-1.41 17.968-.909 17.346-.659 16.499-.659H15.748V0H23.245V-.659H22.483C21.565-.659 20.922-.969 20.536-1.592 20.307-1.976 20.188-2.848 20.188-4.207V-24.645H19.62L5.579-5.11V-20.048C5.579-21.542 5.723-22.476 6.007-22.846 6.41-23.347 7.032-23.597 7.874-23.597H8.636V-24.256H1.138V-23.597H1.888C2.811-23.597 3.461-23.287 3.846-22.664 4.077-22.28 4.195-21.409 4.195-20.048V-3.183C3.577-2.36 3.105-1.818 2.79-1.555 2.468-1.292 2.001-1.049 1.384-.817 1.079-.714 .618-.659 0-.659Z" fill="#6a191d"/>
<path transform="matrix(1,0,0,-1,373.5575,177.74173)" d="M0 0 .482-8.232H0C-.65-5.768-1.572-3.988-2.773-2.909-3.975-1.824-5.413-1.281-7.097-1.281-8.501-1.281-9.778-1.689-10.915-2.507-12.052-3.324-12.947-4.622-13.602-6.415-14.25-8.202-14.579-10.427-14.579-13.086-14.579-15.28-14.272-17.184-13.655-18.792-13.038-20.403-12.11-21.635-10.878-22.495-9.639-23.354-8.227-23.78-6.646-23.78-5.268-23.78-4.05-23.444-2.999-22.775-1.942-22.104-.784-20.768 .476-18.769L.966-19.135C-.103-21.286-1.347-22.861-2.768-23.859-4.19-24.854-5.879-25.354-7.831-25.354-11.354-25.354-14.083-23.866-16.014-20.885-17.457-18.664-18.181-16.055-18.181-13.056-18.181-10.634-17.703-8.41-16.755-6.384-15.806-4.355-14.497-2.787-12.835-1.672-11.166-.556-9.348 0-7.375 0-5.842 0-4.329-.427-2.833-1.287-2.398-1.55-2.082-1.683-1.894-1.683-1.615-1.683-1.367-1.568-1.159-1.343-.886-1.019-.692-.573-.58 0Z" fill="#6a191d"/>
<path transform="matrix(1,0,0,-1,393.7629,113.31851)" d="M0 0 .481-8.232H0C-.65-5.768-1.572-3.988-2.773-2.909-3.974-1.823-5.413-1.281-7.097-1.281-8.501-1.281-9.778-1.69-10.915-2.507-12.052-3.323-12.947-4.622-13.602-6.414-14.251-8.202-14.579-10.427-14.579-13.085-14.579-15.28-14.272-17.183-13.655-18.792-13.038-20.402-12.11-21.634-10.878-22.494-9.639-23.354-8.227-23.78-6.646-23.78-5.268-23.78-4.049-23.445-2.999-22.774-1.942-22.104-.784-20.768 .477-18.769L.966-19.134C-.103-21.286-1.347-22.86-2.768-23.86-4.19-24.853-5.879-25.354-7.831-25.354-11.354-25.354-14.083-23.865-16.014-20.884-17.457-18.664-18.181-16.054-18.181-13.055-18.181-10.634-17.703-8.409-16.756-6.384-15.805-4.354-14.497-2.787-12.835-1.672-11.166-.555-9.349 0-7.375 0-5.841 0-4.329-.428-2.833-1.287-2.398-1.55-2.081-1.683-1.894-1.683-1.615-1.683-1.368-1.567-1.159-1.342-.886-1.019-.693-.573-.579 0Z" fill="#6a191d"/>
<path transform="matrix(1,0,0,-1,148.9445,499.52174)" d="M0 0C5.049 0 8.924-1.593 11.622-4.783 14.324-7.973 15.674-12.523 15.674-18.432 15.674-24.81 14.245-29.702 11.388-33.107 8.53-36.512 4.46-38.214-.821-38.214-5.791-38.214-9.628-36.581-12.329-33.312-15.028-30.045-16.378-25.378-16.378-19.311-16.378-13.128-14.96-8.365-12.122-5.016-9.286-1.671-5.243 0 0 0M-.177-2.582C-4.483-2.582-7.749-3.97-9.979-6.751-12.209-9.529-13.327-13.619-13.327-19.02-13.327-24.535-12.25-28.704-10.096-31.523-7.945-34.339-4.774-35.749-.587-35.749 3.718-35.749 6.985-34.321 9.215-31.463 11.448-28.606 12.563-24.418 12.563-18.9 12.563-13.501 11.486-9.431 9.332-6.69 7.181-3.951 4.01-2.582-.177-2.582M64.043-37.862H61.401L60.58-28.998 58.759-13.619H58.465L49.249-34.399H46.784L37.922-13.619H37.567L35.806-28.764 34.927-37.862H32.343L35.631-8.804H39.037L40.68-13.267 48.017-30.525H48.252L56-12.913 57.644-8.804H60.932ZM90.811-35.632 90.459-37.862H73.904L74.021-29.055 73.904-8.804H90.459L90.694-9.156 90.399-11.389 83.18-11.212H76.841L76.781-21.659 82.767-21.719 87.934-21.602 88.112-21.953 87.874-24.243 82.533-24.126 76.724-24.184V-28.821L76.781-35.455H82.767L90.516-35.338ZM113.644-35.688 113.352-37.862H98.736L98.794-29.055 98.736-8.804H101.613L101.492-28.821 101.552-35.398H113.41ZM143.76-28.821 143.817-37.862H140.941L141.058-29.055V-24.478H123.391V-28.821L123.448-37.862H120.572L120.689-29.055 120.572-8.804H123.508L123.448-21.896H141.001L140.941-8.804H143.817ZM165.07-8.509C169.216-8.509 172.407-9.753 174.636-12.239 176.87-14.723 177.984-18.234 177.984-22.777 177.984-27.706 176.798-31.502 174.432-34.165 172.065-36.826 168.71-38.157 164.363-38.157 160.217-38.157 157.016-36.883 154.767-34.339 152.517-31.796 151.391-28.197 151.391-23.538 151.391-18.725 152.575-15.018 154.944-12.414 157.311-9.812 160.686-8.509 165.07-8.509M164.835-11.034C157.869-11.034 154.385-15.085 154.385-23.186 154.385-31.523 157.753-35.688 164.48-35.688 167.927-35.688 170.547-34.653 172.35-32.578 174.148-30.503 175.048-27.393 175.048-23.246 175.048-15.105 171.643-11.034 164.835-11.034M198.002-26.005C200.466-29.721 203.226-33.439 206.28-37.158V-37.567C205.536-37.881 204.673-38.096 203.694-38.214L203.169-37.922C200.273-34.007 197.729-30.25 195.537-26.651L189.55-26.709V-28.821L189.608-37.862H186.731L186.848-29.055 186.731-8.804 195.303-8.747C198.274-8.747 200.565-9.461 202.171-10.89 203.774-12.315 204.576-14.341 204.576-16.964 204.576-19.039 204.008-20.857 202.874-22.422 201.74-23.99 200.115-25.182 198.002-26.005M189.55-24.243 195.655-24.361C197.609-23.851 199.087-22.99 200.084-21.78 201.083-20.566 201.582-19.039 201.582-17.198 201.582-13.362 199.332-11.329 194.831-11.094L189.667-11.212ZM235.806-8.569C240.188-8.569 243.555-9.764 245.901-12.149 248.249-14.537 249.424-17.943 249.424-22.365 249.424-27.453 248.181-31.346 245.698-34.045 243.212-36.747 239.64-38.096 234.983-38.096 233.731-38.096 232.167-38.078 230.288-38.039 228.41-37.998 226.686-37.941 225.122-37.862L225.239-29.055 225.122-8.804ZM235.335-35.688C238.936-35.688 241.695-34.604 243.612-32.431 245.531-30.261 246.488-27.079 246.488-22.894 246.488-18.979 245.569-16.035 243.729-14.058 241.891-12.081 239.189-11.094 235.63-11.094 234.729-11.094 233.554-11.113 232.107-11.151 230.659-11.192 229.31-11.249 228.058-11.329L227.941-28.821 227.998-35.455C230.659-35.613 233.104-35.688 235.335-35.688M279.069-37.862H276.075L275.432-35.22 273.259-29.41H259.406L257.116-35.103 256.352-37.862H253.416L265.099-8.804H268.386ZM272.378-27.002 266.8-11.914H266.508L260.404-27.002 266.273-27.06ZM307.189-37.862H303.843L293.216-8.804H296.213L296.915-11.506 305.485-34.751H305.722L315.172-11.623 315.875-8.804H318.812ZM328.793-28.821 328.85-37.862H325.973L326.091-29.055 325.973-8.804H328.91ZM351.275-8.569C355.656-8.569 359.023-9.764 361.371-12.149 363.718-14.537 364.894-17.943 364.894-22.365 364.894-27.453 363.65-31.346 361.166-34.045 358.68-36.747 355.108-38.096 350.451-38.096 349.2-38.096 347.635-38.078 345.757-38.039 343.878-37.998 342.155-37.941 340.59-37.862L340.707-29.055 340.59-8.804ZM350.803-35.688C354.405-35.688 357.163-34.604 359.08-32.431 360.999-30.261 361.957-27.079 361.957-22.894 361.957-18.979 361.038-16.035 359.198-14.058 357.361-12.081 354.658-11.094 351.098-11.094 350.198-11.094 349.023-11.113 347.575-11.151 346.127-11.192 344.778-11.249 343.526-11.329L343.409-28.821 343.466-35.455C346.127-35.613 348.573-35.688 350.803-35.688M394.537-37.862H391.544L390.9-35.22 388.728-29.41H374.875L372.584-35.103 371.82-37.862H368.884L380.567-8.804H383.855ZM387.847-27.002 382.268-11.914H381.976L375.872-27.002 381.743-27.06ZM418.314-5.107 417.317-3.697C420.329-1.233 423.38 1.527 426.471 4.58L426.826 4.52 428.058 2.936 427.998 2.524C426.12 .921 423.029-1.641 418.723-5.164ZM429.526-35.632 429.174-37.862H412.619L412.736-29.055 412.619-8.804H429.174L429.408-9.156 429.114-11.389 421.894-11.212H415.556L415.495-21.659 421.482-21.719 426.649-21.602 426.826-21.953 426.589-24.243 421.248-24.126 415.438-24.184V-28.821L415.495-35.455H421.482L429.231-35.338ZM469.205-37.862H466.212L465.568-35.22 463.396-29.41H449.543L447.252-35.103 446.489-37.862H443.552L455.236-8.804H458.524ZM462.515-27.002 456.937-11.914H456.645L450.54-27.002 456.41-27.06ZM507.01-44.612C506.579-45.512 506.17-46.102 505.777-46.374L505.483-46.434C499.065-45.221 493.236-42.439 487.99-38.096 487.718-38.135 487.287-38.157 486.698-38.157 482.551-38.157 479.351-36.883 477.101-34.339 474.852-31.796 473.726-28.197 473.726-23.538 473.726-18.725 474.909-15.018 477.279-12.414 479.645-9.812 483.02-8.509 487.404-8.509 491.551-8.509 494.741-9.753 496.971-12.239 499.204-14.723 500.319-18.234 500.319-22.777 500.319-26.845 499.506-30.151 497.882-32.695 496.257-35.239 493.92-36.902 490.867-37.685 495.799-41.169 501.159-43.342 506.952-44.201ZM476.719-23.186C476.719-31.523 480.086-35.688 486.815-35.688 490.262-35.688 492.881-34.653 494.683-32.578 496.483-30.503 497.383-27.393 497.383-23.246 497.383-15.105 493.977-11.034 487.17-11.034 480.203-11.034 476.719-15.085 476.719-23.186M530.609-23.654V-27.589C530.689-30.915 529.729-33.499 527.733-35.338 525.737-37.178 522.918-38.096 519.279-38.096 515.68-38.096 512.92-37.186 511.001-35.368 509.084-33.546 508.147-30.956 508.184-27.589L508.244-23.303 508.184-8.804H511.121L510.944-27.237C510.905-29.977 511.609-32.06 513.057-33.489 514.504-34.917 516.617-35.632 519.396-35.632 522.177-35.632 524.289-34.917 525.737-33.489 527.185-32.06 527.908-29.977 527.908-27.237L527.79-8.804H530.726ZM543.993-28.821 544.05-37.862H541.174L541.291-29.055 541.174-8.804H544.11ZM558.432-8.629 557.669-29.116 555.85-29.29 555.496-28.881 555.734-8.687 556.025-8.335 558.08-8.275ZM556.377-34.399C556.966-34.399 557.415-34.565 557.728-34.899 558.04-35.231 558.198-35.67 558.198-36.218 558.198-36.766 558.032-37.216 557.699-37.567 557.366-37.922 556.905-38.096 556.319-38.096 555.771-38.096 555.33-37.93 554.997-37.597 554.665-37.265 554.498-36.826 554.498-36.278 554.498-35.73 554.675-35.28 555.027-34.926 555.379-34.574 555.828-34.399 556.377-34.399" fill="#6a191d"/>
</g>
</g>
</svg>
